<svg xmlns="http://www.w3.org/2000/svg" viewBox="0 0 120 120" role="img" aria-label="C&amp;A">
	<path fill="#E30613" d="M60 4c4.2 0 8 1 11.5 2.8.9-2.2 3.1-3.8 5.7-3.8 3.4 0 6.2 2.8 6.2 6.2 0 1-.2 1.9-.6 2.7 2.7 2.2 4.6 5.5 5.1 9.2 2.4-.4 4.9.5 6.7 2.3 2.7 2.7 2.7 7.1 0 9.8-.6.6-1.4 1.1-2.2 1.5.6 2.4.4 5.2-.8 7.5 1.7 2.3 1.9 5.6.4 7.8-1.8 2.8-5.4 3.7-8.4 2.4-1.4 2.3-3.8 3.8-6.4 4.2-.5 2.7-2.2 5.1-4.7 6.2-3.1 1.3-6.8.5-9.1-2-1.9 1.2-4.2 1.6-6.5 1-2.8-.7-5-2.9-5.7-5.7-2.6-.4-4.9-1.9-6.4-4.2-3 1.3-6.6.4-8.4-2.4-1.5-2.4-1.3-5.7.4-7.8-1.2-2.3-1.4-5.1-.8-7.5-.8-.4-1.6-.9-2.2-1.5-2.7-2.7-2.7-7.1 0-9.8 1.8-1.8 4.3-2.7 6.7-2.3.5-3.7 2.4-7 5.1-9.2-.4-.8-.6-1.7-.6-2.7 0-3.4 2.8-6.2 6.2-6.2 2.6 0 4.8 1.6 5.7 3.8 3.5-1.8 7.3-2.8 11.5-2.8z"/>
	<circle cx="60" cy="60" r="38" fill="#ffffff"/>
	<text x="60" y="71" text-anchor="middle" font-family="Arial, Helvetica, sans-serif" font-size="30" font-weight="800" fill="#003087" letter-spacing="-0.5">C&amp;A</text>
</svg>
